<svg version="1.1" xmlns="http://www.w3.org/2000/svg">
	<symbol viewBox="0 0 17 17" fill="currentColor" id="i-tel">
		<path d="M15.8795 11.5266L11.8216 9.71074C11.6643 9.64266 11.4925 9.61486 11.3217 9.62987C11.151 9.64487 10.9866 9.7022 10.8436 9.79668C10.8322 9.80393 10.8213 9.81197 10.8109 9.82074L8.6797 11.6375C8.63227 11.6664 8.57844 11.6832 8.52297 11.6863C8.46751 11.6895 8.41213 11.6789 8.36173 11.6555C6.9661 10.9818 5.52149 9.54832 4.84774 8.16902C4.82391 8.11901 4.81285 8.06386 4.81555 8.00852C4.81825 7.95318 4.83462 7.89937 4.86321 7.85191L6.68509 5.68543C6.69368 5.67512 6.70142 5.66394 6.70915 5.65277C6.80333 5.50995 6.8605 5.34593 6.8755 5.17551C6.8905 5.00508 6.86287 4.83361 6.79509 4.67652L4.97579 0.625429C4.88796 0.42025 4.73594 0.249103 4.54255 0.137688C4.34916 0.0262724 4.12485 -0.0193965 3.90329 0.00753894C2.82183 0.150126 1.82925 0.681515 1.11095 1.50245C0.392648 2.32339 -0.00225152 3.37773 9.65698e-06 4.46855C9.65698e-06 11.1029 5.39688 16.4998 12.0313 16.4998C13.1221 16.5021 14.1764 16.1072 14.9974 15.3889C15.8183 14.6706 16.3497 13.678 16.4923 12.5965C16.519 12.376 16.4738 12.1527 16.3634 11.9599C16.253 11.7671 16.0833 11.6151 15.8795 11.5266ZM15.8125 12.5106C15.6912 13.4265 15.2404 14.2668 14.5445 14.8744C13.8485 15.4821 12.9551 15.8155 12.0313 15.8123C5.77673 15.8123 0.68751 10.7231 0.68751 4.46855C0.684309 3.54468 1.01771 2.65127 1.62537 1.95535C2.23303 1.25943 3.07335 0.808659 3.98923 0.687304C4.00297 0.686479 4.01674 0.686479 4.03048 0.687304C4.09829 0.687883 4.16442 0.708508 4.22055 0.746584C4.27667 0.784661 4.32027 0.838487 4.34587 0.901289L6.16001 4.95238C6.18118 5.00189 6.19042 5.05569 6.18698 5.10942C6.18355 5.16316 6.16754 5.21534 6.14024 5.26176L4.31923 7.42738C4.31063 7.43855 4.30204 7.44887 4.29431 7.4609C4.19729 7.60926 4.14015 7.78012 4.12841 7.95699C4.11667 8.13387 4.15072 8.31078 4.22728 8.47066C4.97407 9.99949 6.51407 11.5283 8.06009 12.2751C8.22106 12.3512 8.39898 12.3843 8.57654 12.3712C8.75409 12.3581 8.92523 12.2992 9.07329 12.2004L9.10509 12.1763L11.2389 10.3613C11.2846 10.3334 11.3362 10.3168 11.3895 10.3127C11.4429 10.3087 11.4964 10.3174 11.5457 10.3381L15.6028 12.1565C15.6713 12.185 15.7287 12.2349 15.7665 12.2987C15.8043 12.3625 15.8204 12.4368 15.8125 12.5106Z"/>
	</symbol>
	<symbol viewBox="0 0 20 16" fill="currentColor" id="i-email">
		<path d="M3.09375 0C2.27324 0 1.48633 0.325948 0.906138 0.906138C0.325948 1.48633 0 2.27324 0 3.09375V12.0312C0 12.8518 0.325948 13.6387 0.906138 14.2189C1.48633 14.7991 2.27324 15.125 3.09375 15.125H16.1562C16.9768 15.125 17.7637 14.7991 18.3439 14.2189C18.9241 13.6387 19.25 12.8518 19.25 12.0312V3.09375C19.25 2.27324 18.9241 1.48633 18.3439 0.906138C17.7637 0.325948 16.9768 0 16.1562 0H3.09375ZM17.875 3.71456L9.625 8.1565L1.375 3.71456V3.09375C1.375 2.63791 1.55608 2.20074 1.87841 1.87841C2.20074 1.55608 2.63791 1.375 3.09375 1.375H16.1562C16.6121 1.375 17.0493 1.55608 17.3716 1.87841C17.6939 2.20074 17.875 2.63791 17.875 3.09375V3.71456ZM1.375 5.27588L9.29912 9.54319C9.39928 9.5971 9.51125 9.62533 9.625 9.62533C9.73875 9.62533 9.85072 9.5971 9.95088 9.54319L17.875 5.27588V12.0312C17.875 12.4871 17.6939 12.9243 17.3716 13.2466C17.0493 13.5689 16.6121 13.75 16.1562 13.75H3.09375C2.63791 13.75 2.20074 13.5689 1.87841 13.2466C1.55608 12.9243 1.375 12.4871 1.375 12.0312V5.27588Z"/>
	</symbol>
	<symbol viewBox="0 0 36 36" fill="currentColor" id="i-cart">
		<path d="M 18 0 A 18 18 0 0 0 0 18 A 18 18 0 0 0 18 36 A 18 18 0 0 0 36 18 A 18 18 0 0 0 18 0 z M 8.9804688 8.25 A 0.75 0.75 0 0 1 9.71875 8.7871094 L 10.271484 10.650391 L 24.923828 10.650391 C 26.762641 10.650391 28.15653 12.409349 27.638672 14.160156 L 25.984375 19.759766 A 0.750075 0.750075 0 0 0 25.984375 19.761719 C 25.632379 20.948844 24.515186 21.75 23.269531 21.75 L 14.111328 21.75 C 12.864479 21.75 11.747571 20.947101 11.396484 19.759766 L 8.9902344 11.613281 L 8.28125 9.2128906 A 0.75 0.75 0 0 1 8.7871094 8.28125 A 0.75 0.75 0 0 1 8.9804688 8.25 z M 10.714844 12.150391 L 12.835938 19.335938 C 12.99285 19.866602 13.504177 20.25 14.111328 20.25 L 23.269531 20.25 C 23.874856 20.25 24.385996 19.867362 24.544922 19.335938 L 26.199219 13.736328 A 0.750075 0.750075 0 0 0 26.199219 13.734375 C 26.437361 12.929229 25.841015 12.150391 24.923828 12.150391 L 10.714844 12.150391 z M 14.5 23.25 C 15.096392 23.25 15.66998 23.486387 16.091797 23.908203 C 16.513613 24.33002 16.75 24.903608 16.75 25.5 C 16.75 26.096392 16.513613 26.66998 16.091797 27.091797 C 15.66998 27.513613 15.096392 27.75 14.5 27.75 C 13.903608 27.75 13.33002 27.513613 12.908203 27.091797 C 12.486387 26.66998 12.25 26.096392 12.25 25.5 C 12.25 24.903608 12.486387 24.33002 12.908203 23.908203 C 13.33002 23.486387 13.903608 23.25 14.5 23.25 z M 22.5 23.25 C 23.096392 23.25 23.66998 23.486387 24.091797 23.908203 C 24.513613 24.33002 24.75 24.903608 24.75 25.5 C 24.75 26.096392 24.513613 26.66998 24.091797 27.091797 C 23.66998 27.513613 23.096392 27.75 22.5 27.75 C 21.903608 27.75 21.33002 27.513613 20.908203 27.091797 C 20.486387 26.66998 20.25 26.096392 20.25 25.5 C 20.25 24.903608 20.486387 24.33002 20.908203 23.908203 C 21.33002 23.486387 21.903608 23.25 22.5 23.25 z M 14.5 24.75 C 14.300792 24.75 14.109534 24.827966 13.96875 24.96875 C 13.82797 25.109534 13.75 25.300792 13.75 25.5 C 13.75 25.699208 13.827966 25.890466 13.96875 26.03125 C 14.109534 26.17203 14.300792 26.25 14.5 26.25 C 14.699208 26.25 14.890466 26.172034 15.03125 26.03125 C 15.17203 25.890466 15.25 25.699208 15.25 25.5 C 15.25 25.300792 15.172034 25.109534 15.03125 24.96875 C 14.890466 24.82797 14.699208 24.75 14.5 24.75 z M 22.5 24.75 C 22.300792 24.75 22.109534 24.827966 21.96875 24.96875 C 21.82797 25.109534 21.75 25.300792 21.75 25.5 C 21.75 25.699208 21.827966 25.890466 21.96875 26.03125 C 22.109534 26.17203 22.300792 26.25 22.5 26.25 C 22.699208 26.25 22.890466 26.172034 23.03125 26.03125 C 23.17203 25.890466 23.25 25.699208 23.25 25.5 C 23.25 25.300792 23.172034 25.109534 23.03125 24.96875 C 22.890466 24.82797 22.699208 24.75 22.5 24.75 z "/>
	</symbol>
	<symbol viewBox="0 0 32 32" fill="currentColor" id="i-tg">
		<path d="M16 32C7.16344 32 0 24.8366 0 16C0 7.16344 7.16344 0 16 0C24.8366 0 32 7.16344 32 16C32 24.8366 24.8366 32 16 32ZM16.6919 12.0074C15.2589 12.6034 12.3949 13.8371 8.09992 15.7083C7.40248 15.9856 7.03714 16.257 7.00388 16.5223C6.94767 16.9706 7.50915 17.1472 8.27374 17.3876C8.37774 17.4203 8.4855 17.4542 8.59598 17.4901C9.34822 17.7346 10.3601 18.0207 10.8862 18.0321C11.3633 18.0424 11.8959 17.8457 12.4839 17.4419C16.4968 14.7331 18.5683 13.3639 18.6983 13.3344C18.7901 13.3136 18.9172 13.2874 19.0034 13.3639C19.0895 13.4405 19.0811 13.5855 19.0719 13.6244C19.0163 13.8615 16.8123 15.9106 15.6717 16.971C15.3161 17.3015 15.0639 17.536 15.0124 17.5896C14.8969 17.7096 14.7791 17.823 14.666 17.9321C13.9672 18.6058 13.4431 19.111 14.695 19.936C15.2967 20.3325 15.7781 20.6603 16.2584 20.9874C16.7829 21.3446 17.306 21.7009 17.9829 22.1446C18.1554 22.2576 18.3201 22.375 18.4805 22.4894C19.0909 22.9246 19.6393 23.3155 20.3168 23.2532C20.7105 23.217 21.1172 22.8468 21.3237 21.7427C21.8118 19.1335 22.7712 13.4801 22.9929 11.1505C23.0123 10.9464 22.9879 10.6851 22.9683 10.5705C22.9486 10.4558 22.9076 10.2924 22.7586 10.1715C22.582 10.0283 22.3095 9.99805 22.1877 10.0001C21.6335 10.01 20.7834 10.3056 16.6919 12.0074Z"/>
	</symbol>
	<symbol viewBox="0 0 32 32" fill="currentColor" id="i-insta">
		<path d="M 16 0 C 7.16344 0 0 7.16344 0 16 C 0 24.8366 7.16344 32 16 32 C 24.8366 32 32 24.8366 32 16 C 32 7.16344 24.8366 0 16 0 z M 12.599609 7.6992188 L 19.400391 7.6992188 C 20.300391 7.7992187 20.900391 7.8996094 21.400391 8.0996094 C 22.000391 8.3996094 22.400391 8.5996094 22.900391 9.0996094 C 23.400391 9.5996094 23.700391 10.099609 23.900391 10.599609 C 24.100391 11.099609 24.300781 11.699609 24.300781 12.599609 L 24.300781 19.400391 C 24.200781 20.300391 24.100391 20.900391 23.900391 21.400391 C 23.600391 22.000391 23.400391 22.400391 22.900391 22.900391 C 22.400391 23.400391 21.900391 23.700391 21.400391 23.900391 C 20.900391 24.100391 20.300391 24.300781 19.400391 24.300781 L 12.599609 24.300781 C 11.699609 24.200781 11.099609 24.100391 10.599609 23.900391 C 9.9996094 23.600391 9.5996094 23.400391 9.0996094 22.900391 C 8.5996094 22.400391 8.2996094 21.900391 8.0996094 21.400391 C 7.8996094 20.900391 7.6992187 20.300391 7.6992188 19.400391 L 7.6992188 12.599609 C 7.7992187 11.699609 7.8996094 11.099609 8.0996094 10.599609 C 8.3996094 9.9996094 8.5996094 9.5996094 9.0996094 9.0996094 C 9.5996094 8.5996094 10.099609 8.2996094 10.599609 8.0996094 C 11.099609 7.8996094 11.699609 7.6992187 12.599609 7.6992188 z M 12.599609 9.1992188 C 11.799609 9.2992187 11.399609 9.4 11.099609 9.5 C 10.699609 9.6 10.399609 9.7996094 10.099609 10.099609 C 9.8622194 10.337009 9.7507944 10.574428 9.6152344 10.861328 C 9.5795044 10.936928 9.5417 11.016209 9.5 11.099609 C 9.48453 11.146009 9.4664156 11.195747 9.4472656 11.248047 C 9.3426556 11.533847 9.1992188 11.923409 9.1992188 12.599609 L 9.1992188 19.400391 C 9.2992187 20.200391 9.4 20.600391 9.5 20.900391 C 9.6 21.300391 9.7996094 21.600391 10.099609 21.900391 C 10.337009 22.137791 10.574428 22.249166 10.861328 22.384766 C 10.937028 22.420566 11.016109 22.4583 11.099609 22.5 C 11.146009 22.5155 11.195747 22.533534 11.248047 22.552734 C 11.533847 22.657334 11.923409 22.800781 12.599609 22.800781 L 19.400391 22.800781 C 20.200391 22.700781 20.600391 22.6 20.900391 22.5 C 21.300391 22.4 21.600391 22.200391 21.900391 21.900391 C 22.137791 21.662991 22.249166 21.425572 22.384766 21.138672 C 22.420566 21.062972 22.4583 20.983891 22.5 20.900391 C 22.5155 20.853991 22.533534 20.804253 22.552734 20.751953 C 22.657334 20.466153 22.800781 20.076591 22.800781 19.400391 L 22.800781 12.599609 C 22.700781 11.799609 22.6 11.399609 22.5 11.099609 C 22.4 10.699609 22.200391 10.399609 21.900391 10.099609 C 21.662991 9.8622194 21.425572 9.7508044 21.138672 9.6152344 C 21.063072 9.5795344 20.983691 9.54167 20.900391 9.5 C 20.853991 9.48453 20.804253 9.4664056 20.751953 9.4472656 C 20.466153 9.3426456 20.076591 9.1992188 19.400391 9.1992188 L 12.599609 9.1992188 z M 20.400391 10.599609 C 20.952691 10.599609 21.400391 11.047309 21.400391 11.599609 C 21.400391 12.151909 20.952691 12.599609 20.400391 12.599609 C 19.848091 12.599609 19.400391 12.151909 19.400391 11.599609 C 19.400391 11.047309 19.848091 10.599609 20.400391 10.599609 z M 16 11.699219 C 18.4 11.699219 20.300781 13.6 20.300781 16 C 20.300781 18.4 18.4 20.300781 16 20.300781 C 13.6 20.300781 11.699219 18.4 11.699219 16 C 11.699219 13.6 13.6 11.699219 16 11.699219 z M 16 13.199219 C 14.4 13.199219 13.199219 14.5 13.199219 16 C 13.199219 17.6 14.5 18.800781 16 18.800781 C 17.5 18.800781 18.800781 17.5 18.800781 16 C 18.800781 14.4 17.5 13.199219 16 13.199219 z "/>
	</symbol>
	<symbol viewBox="0 0 18 18" fill="currentColor" id="i-burger">
		<path d="m 1,15 h 16 c 0.55,0 1,-0.45 1,-1 0,-0.55 -0.45,-1 -1,-1 H 1 c -0.55,0 -1,0.45 -1,1 0,0.55 0.45,1 1,1 z M 1,10 H 17 C 17.55,10 18,9.55 18,9 18,8.45 17.55,8 17,8 H 1 C 0.45,8 0,8.45 0,9 0,9.55 0.45,10 1,10 Z M 0,4 C 0,4.55 0.45,5 1,5 H 17 C 17.55,5 18,4.55 18,4 18,3.45 17.55,3 17,3 H 1 C 0.45,3 0,3.45 0,4 Z"/>
	</symbol>
	<symbol viewBox="0 0 18 18" fill="currentColor" id="i-close">
		<path d="M 2.6360387,4.0502523 13.949747,15.363961 c 0.388909,0.388909 1.025305,0.388909 1.414214,0 0.388909,-0.388909 0.388909,-1.025305 0,-1.414214 L 4.0502522,2.6360388 c -0.3889087,-0.3889088 -1.0253048,-0.3889088 -1.4142135,0 -0.3889088,0.3889087 -0.3889088,1.0253048 0,1.4142135 z m 5e-7,11.3137087 c 0.3889087,0.388909 1.0253048,0.388909 1.4142135,0 L 15.363961,4.0502524 c 0.388909,-0.3889087 0.388909,-1.0253048 0,-1.4142135 -0.388909,-0.3889088 -1.025305,-0.3889088 -1.414214,0 L 2.6360392,13.949747 c -0.3889088,0.388909 -0.3889088,1.025305 0,1.414214 z"/>
	</symbol>
	<symbol viewBox="0 0 20 20" fill="currentColor" id="i-plus">
		<path d="M19.5 9.75C19.5 10.5792 18.8283 11.2505 18 11.2505H11.25V18.0005C11.25 18.8297 10.5783 19.5 9.75 19.5C8.92172 19.5 8.25 18.8297 8.25 18.0005V11.2505H1.5C0.671719 11.2505 0 10.5792 0 9.75C0 8.92078 0.671719 8.25047 1.5 8.25047H8.25V1.50047C8.25 0.67125 8.92172 0 9.75 0C10.5783 0 11.25 0.67125 11.25 1.50047V8.25047H18C18.8297 8.25 19.5 8.92031 19.5 9.75Z"/>
	</symbol>
</svg>
